<svg xmlns="http://www.w3.org/2000/svg" xmlns:xlink="http://www.w3.org/1999/xlink" preserveAspectRatio="xMidYMid" width="56" height="49" viewBox="0 0 56 49">
  <defs>
    <style>
      .cls-1 {
        fill: #f35d96;
        fill-rule: evenodd;
      }
    </style>
  </defs>
  <path d="M40.249,0.014 C36.043,0.014 32.672,1.524 29.698,4.497 C29.697,4.499 29.695,4.500 29.693,4.502 C29.693,4.502 29.693,4.503 29.692,4.503 L28.002,6.630 L26.312,4.631 C26.310,4.629 26.309,4.627 26.307,4.625 C26.307,4.625 26.306,4.625 26.306,4.625 L26.306,4.625 C23.332,1.652 19.961,0.014 15.755,0.014 C11.549,0.014 7.595,1.652 4.621,4.625 C1.647,7.597 0.009,11.550 0.009,15.755 C0.009,19.957 1.645,23.908 4.616,26.881 L25.518,47.951 C26.175,48.613 27.069,48.986 28.002,48.986 C28.935,48.986 29.830,48.613 30.487,47.951 L51.387,26.882 C54.359,23.909 55.996,19.958 55.996,15.755 C55.996,11.551 54.358,7.598 51.384,4.625 C48.409,1.652 44.455,0.014 40.249,0.014 L40.249,0.014 Z" class="cls-1"/>
</svg>
