<svg xmlns="http://www.w3.org/2000/svg" xmlns:xlink="http://www.w3.org/1999/xlink" preserveAspectRatio="xMidYMid" width="50" height="81" viewBox="0 0 50 81">
  <defs>
    <style>
      .cls-1 {
        fill: #a778e2;
        fill-rule: evenodd;
      }
    </style>
  </defs>
  <path d="M29.712,80.571 C25.994,81.564 20.020,80.571 20.020,80.571 C20.020,80.571 -0.005,79.012 -0.005,59.398 C-0.005,40.883 19.106,22.002 19.106,22.002 L30.718,22.002 C30.718,22.002 50.012,40.792 50.012,59.489 C50.012,78.187 29.712,80.571 29.712,80.571 ZM31.844,55.889 C31.547,55.175 31.156,54.555 30.673,54.027 C30.190,53.499 29.638,53.046 29.019,52.667 C28.399,52.289 27.768,51.950 27.123,51.652 C26.479,51.354 25.847,51.072 25.228,50.805 C24.609,50.538 24.054,50.253 23.565,49.949 C23.075,49.644 22.685,49.297 22.394,48.906 C22.103,48.515 21.957,48.052 21.957,47.518 C21.957,47.160 22.022,46.820 22.152,46.498 C22.282,46.176 22.481,45.901 22.747,45.672 C23.014,45.443 23.345,45.264 23.741,45.134 C24.137,45.004 24.602,44.939 25.135,44.939 C25.816,44.939 26.442,45.023 27.012,45.189 C27.581,45.355 28.083,45.540 28.517,45.743 C28.951,45.946 29.316,46.135 29.613,46.307 C29.910,46.479 30.127,46.566 30.263,46.566 C30.400,46.566 30.508,46.529 30.589,46.454 C30.669,46.379 30.731,46.261 30.775,46.099 C30.818,45.937 30.849,45.732 30.868,45.483 C30.886,45.234 30.895,44.930 30.895,44.569 C30.895,44.245 30.889,43.974 30.877,43.757 C30.864,43.539 30.842,43.358 30.812,43.216 C30.781,43.072 30.744,42.957 30.701,42.870 C30.657,42.783 30.573,42.678 30.449,42.555 C30.326,42.431 30.072,42.277 29.688,42.093 C29.303,41.907 28.864,41.741 28.368,41.593 C27.872,41.445 27.340,41.328 26.770,41.242 C26.654,41.224 26.537,41.230 26.421,41.216 L26.421,38.133 L23.495,38.133 L23.495,41.217 C22.958,41.288 22.436,41.394 21.930,41.541 C20.945,41.827 20.090,42.258 19.366,42.835 C18.641,43.412 18.065,44.139 17.637,45.014 C17.210,45.889 16.997,46.904 16.997,48.058 C16.997,49.064 17.145,49.927 17.443,50.647 C17.740,51.367 18.127,51.991 18.604,52.518 C19.081,53.046 19.622,53.499 20.229,53.878 C20.836,54.256 21.462,54.595 22.106,54.893 C22.750,55.191 23.375,55.473 23.982,55.740 C24.589,56.007 25.131,56.292 25.608,56.597 C26.085,56.901 26.472,57.248 26.769,57.639 C27.066,58.030 27.215,58.499 27.215,59.045 C27.215,59.518 27.128,59.947 26.955,60.333 C26.781,60.719 26.530,61.042 26.202,61.304 C25.874,61.565 25.475,61.767 25.004,61.910 C24.533,62.053 24.000,62.125 23.405,62.125 C22.501,62.125 21.705,62.023 21.017,61.818 C20.330,61.613 19.738,61.387 19.243,61.139 C18.747,60.891 18.341,60.666 18.026,60.461 C17.709,60.256 17.465,60.154 17.292,60.154 C17.168,60.154 17.059,60.188 16.966,60.257 C16.873,60.325 16.799,60.441 16.743,60.602 C16.687,60.764 16.647,60.975 16.622,61.237 C16.597,61.498 16.585,61.822 16.585,62.207 C16.585,62.780 16.619,63.218 16.687,63.523 C16.755,63.828 16.870,64.061 17.031,64.220 C17.192,64.380 17.455,64.565 17.821,64.774 C18.187,64.983 18.642,65.183 19.187,65.374 C19.732,65.565 20.361,65.727 21.074,65.863 C21.786,65.998 22.557,66.066 23.388,66.066 C23.424,66.066 23.458,66.059 23.495,66.058 L23.495,68.930 L26.421,68.930 L26.421,65.674 C26.560,65.638 26.708,65.623 26.844,65.582 C27.922,65.259 28.864,64.778 29.669,64.139 C30.474,63.499 31.112,62.702 31.583,61.745 C32.054,60.789 32.290,59.679 32.290,58.412 C32.290,57.444 32.141,56.603 31.844,55.889 ZM30.810,20.535 L19.106,20.535 L19.106,16.136 L30.810,16.136 L30.810,20.535 ZM19.288,14.670 L13.254,0.188 C13.254,0.188 16.820,3.121 19.014,3.121 C21.209,3.121 24.957,0.096 24.957,0.096 C24.957,0.096 28.432,3.121 30.627,3.121 C32.821,3.121 36.570,0.005 36.570,0.005 L30.627,14.670 L19.288,14.670 Z" class="cls-1"/>
</svg>
