<svg xmlns="http://www.w3.org/2000/svg" xmlns:xlink="http://www.w3.org/1999/xlink" preserveAspectRatio="xMidYMid" width="66.25" height="56.156" viewBox="0 0 66.25 56.156">
  <defs>
    <style>
      .cls-1 {
        fill: #fff;
        fill-rule: evenodd;
      }
    </style>
  </defs>
  <path d="M63.145,39.530 L3.115,39.530 C1.400,39.530 0.010,38.134 0.010,36.411 C0.010,34.688 1.400,33.291 3.115,33.291 L63.145,33.291 C64.860,33.291 66.250,34.688 66.250,36.411 C66.250,38.134 64.860,39.530 63.145,39.530 ZM63.145,22.892 L3.115,22.892 C1.400,22.892 0.010,21.495 0.010,19.772 C0.010,18.049 1.400,16.652 3.115,16.652 L63.145,16.652 C64.860,16.652 66.250,18.049 66.250,19.772 C66.250,21.495 64.860,22.892 63.145,22.892 ZM63.145,6.253 L3.115,6.253 C1.400,6.253 0.010,4.856 0.010,3.133 C0.010,1.410 1.400,0.014 3.115,0.014 L63.145,0.014 C64.860,0.014 66.250,1.410 66.250,3.133 C66.250,4.856 64.860,6.253 63.145,6.253 ZM3.115,49.930 L63.145,49.930 C64.860,49.930 66.250,51.327 66.250,53.049 C66.250,54.772 64.860,56.169 63.145,56.169 L3.115,56.169 C1.400,56.169 0.010,54.772 0.010,53.049 C0.010,51.327 1.400,49.930 3.115,49.930 Z" class="cls-1"/>
</svg>
