<svg xmlns="http://www.w3.org/2000/svg" xmlns:xlink="http://www.w3.org/1999/xlink" preserveAspectRatio="xMidYMid" width="47.501" height="47.5" viewBox="0 0 47.501 47.5">
  <defs>
    <style>
      .cls-1 {
        fill: #fff;
        fill-rule: evenodd;
      }
    </style>
  </defs>
  <path d="M44.406,26.385 L27.351,26.385 L27.351,44.399 C27.351,46.113 26.064,47.503 24.478,47.503 C22.891,47.503 21.605,46.113 21.605,44.399 L21.605,26.385 L3.096,26.385 C1.381,26.385 -0.009,24.988 -0.009,23.265 C-0.009,21.542 1.381,20.146 3.096,20.146 L21.605,20.146 L21.605,3.092 C21.605,1.377 22.891,-0.013 24.478,-0.013 C26.064,-0.013 27.351,1.377 27.351,3.092 L27.351,20.146 L44.406,20.146 C46.121,20.146 47.511,21.542 47.511,23.265 C47.511,24.988 46.121,26.385 44.406,26.385 Z" class="cls-1"/>
</svg>
