<svg xmlns="http://www.w3.org/2000/svg" xmlns:xlink="http://www.w3.org/1999/xlink" preserveAspectRatio="xMidYMid" width="82" height="58.031" viewBox="0 0 82 58.031">
  <defs>
    <style>
      .cls-1 {
        fill: #f4a055;
        fill-rule: evenodd;
      }
    </style>
  </defs>
  <path d="M69.701,47.202 C69.722,47.267 75.644,58.019 75.644,58.019 C75.644,58.019 57.561,51.137 57.511,51.107 C55.736,51.350 53.907,51.477 52.039,51.477 C35.488,51.477 33.396,47.217 33.396,47.217 C52.213,47.217 75.300,26.452 55.697,6.964 C69.373,7.051 82.006,16.929 82.006,29.220 C82.006,36.607 77.161,43.153 69.701,47.202 ZM29.970,44.522 C28.101,44.522 26.272,44.395 24.497,44.151 C24.447,44.182 6.364,51.064 6.364,51.064 C6.364,51.064 12.287,40.312 12.307,40.247 C4.848,36.198 0.002,29.652 0.002,22.265 C0.002,9.973 13.419,0.009 29.970,0.009 C46.520,0.009 59.937,9.973 59.937,22.265 C59.937,34.557 46.520,44.522 29.970,44.522 Z" class="cls-1"/>
</svg>
