<svg xmlns="http://www.w3.org/2000/svg" xmlns:xlink="http://www.w3.org/1999/xlink" preserveAspectRatio="xMidYMid" width="58" height="53" viewBox="0 0 58 53">
  <defs>
    <style>
      .cls-1 {
        fill: #12d5b3;
        fill-rule: evenodd;
      }
    </style>
  </defs>
  <path d="M53.706,52.995 L45.115,52.995 L45.115,8.488 L53.706,8.488 C56.078,8.488 58.001,10.385 58.001,12.726 L58.001,48.756 C58.001,51.098 56.078,52.995 53.706,52.995 ZM17.193,8.487 L17.193,8.487 L17.193,4.249 C17.193,1.908 19.116,0.010 21.489,0.010 L36.523,0.010 C38.895,0.010 40.819,1.908 40.819,4.249 L40.819,8.487 L40.819,52.995 L17.193,52.995 L17.193,8.487 ZM0.012,48.756 L0.012,12.726 C0.012,10.385 1.935,8.488 4.307,8.488 L12.898,8.488 L12.898,52.995 L4.307,52.995 C1.935,52.995 0.012,51.098 0.012,48.756 Z" class="cls-1"/>
</svg>
