<svg xmlns="http://www.w3.org/2000/svg" xmlns:xlink="http://www.w3.org/1999/xlink" preserveAspectRatio="xMidYMid" width="57" height="53" viewBox="0 0 57 53">
  <defs>
    <style>
      .cls-1 {
        fill: #e75c5c;
        fill-rule: evenodd;
      }
    </style>
  </defs>
  <path d="M55.888,22.967 L55.888,22.967 L41.536,33.094 L47.065,49.571 C47.152,49.827 47.199,50.101 47.199,50.386 C47.199,51.825 46.003,52.991 44.528,52.991 C43.943,52.991 43.403,52.807 42.963,52.496 L42.962,52.497 L28.499,42.292 L14.037,52.497 L14.036,52.496 C13.596,52.807 13.056,52.991 12.471,52.991 C10.995,52.991 9.799,51.825 9.799,50.386 C9.799,50.101 9.847,49.827 9.933,49.571 L15.462,33.094 L1.110,22.967 L1.110,22.967 C0.441,22.493 0.004,21.724 0.004,20.856 C0.004,19.417 1.200,18.250 2.676,18.250 L2.676,18.250 L20.443,18.250 L25.945,1.852 C26.280,0.786 27.297,0.011 28.499,0.011 C29.702,0.011 30.719,0.786 31.054,1.852 L36.556,18.250 L54.323,18.250 L54.323,18.250 C55.798,18.250 56.994,19.417 56.994,20.856 C56.994,21.724 56.558,22.493 55.888,22.967 Z" class="cls-1"/>
</svg>
