<svg xmlns="http://www.w3.org/2000/svg" xmlns:xlink="http://www.w3.org/1999/xlink" preserveAspectRatio="xMidYMid" width="79" height="56" viewBox="0 0 79 56">
  <defs>
    <style>
      .cls-1 {
        fill: #42aaf2;
        fill-rule: evenodd;
      }
    </style>
  </defs>
  <path d="M79.008,53.517 C79.008,53.519 79.009,53.520 79.009,53.522 C79.009,54.884 77.907,55.988 76.549,55.988 L58.218,55.988 C59.592,55.683 60.621,54.460 60.621,52.992 C60.621,52.989 60.620,52.987 60.620,52.985 L60.622,52.985 C60.622,52.985 60.622,41.788 52.457,37.717 C48.967,35.977 48.736,36.309 47.003,35.897 L47.051,31.046 C47.051,31.046 45.145,29.585 44.553,25.005 C43.360,25.350 42.966,23.602 42.896,22.488 C42.832,21.414 42.205,18.055 43.660,18.358 C43.363,16.115 43.149,14.093 43.254,13.022 C43.619,9.261 47.234,5.331 52.803,5.044 C59.353,5.331 61.948,9.258 62.312,13.019 C62.418,14.090 62.184,16.114 61.886,18.353 C63.342,18.054 62.709,21.407 62.639,22.482 C62.574,23.595 62.171,25.338 60.982,24.993 C60.387,29.573 58.481,31.022 58.481,31.022 L58.526,35.866 C58.526,35.866 59.731,36.555 64.820,38.667 C69.910,40.782 68.313,39.200 72.459,41.267 C79.010,44.533 79.010,53.517 79.010,53.517 L79.008,53.517 ZM42.094,36.950 C47.688,39.274 45.933,37.536 50.490,39.808 C57.691,43.397 57.691,53.272 57.691,53.272 L57.689,53.272 C57.689,53.274 57.690,53.276 57.690,53.278 C57.690,54.775 56.479,55.988 54.985,55.988 L2.698,55.988 C1.205,55.988 -0.006,54.775 -0.006,53.278 C-0.006,53.276 -0.006,53.274 -0.006,53.272 L-0.007,53.272 C-0.007,53.272 -0.007,43.397 7.194,39.807 C11.750,37.535 9.996,39.379 15.590,37.054 C21.184,34.733 22.510,33.923 22.510,33.923 L22.562,28.573 C22.562,28.573 20.467,26.967 19.816,21.932 C18.505,22.312 18.072,20.390 17.995,19.167 C17.924,17.985 17.236,14.293 18.835,14.626 C18.508,12.161 18.273,9.939 18.388,8.761 C18.789,4.627 22.763,0.308 28.884,-0.008 C36.084,0.307 38.937,4.624 39.336,8.757 C39.453,9.936 39.196,12.160 38.869,14.620 C40.469,14.292 39.773,17.978 39.696,19.160 C39.625,20.383 39.182,22.298 37.875,21.919 C37.221,26.954 35.126,28.547 35.126,28.547 L35.175,33.870 C35.175,33.870 36.500,34.628 42.094,36.950 Z" class="cls-1"/>
</svg>
