<svg xmlns="http://www.w3.org/2000/svg" xmlns:xlink="http://www.w3.org/1999/xlink" preserveAspectRatio="xMidYMid" width="62" height="43" viewBox="0 0 62 43">
  <defs>
    <style>
      .cls-1 {
        fill: #926cdf;
        fill-rule: evenodd;
      }
    </style>
  </defs>
  <path d="M-0.006,4.971 L-0.006,38.031 C-0.006,40.770 2.186,42.990 4.890,42.990 C5.843,42.990 6.732,42.713 7.484,42.236 L7.484,42.236 L26.105,30.448 L26.105,38.031 C26.105,40.770 28.297,42.990 31.001,42.990 C31.954,42.990 32.843,42.713 33.595,42.236 L33.595,42.236 L59.644,25.746 C59.653,25.740 59.661,25.735 59.670,25.730 L59.707,25.706 L59.706,25.706 C61.088,24.829 62.008,23.274 62.008,21.501 C62.008,19.728 61.088,18.173 59.706,17.296 L59.707,17.296 L59.670,17.273 C59.661,17.267 59.653,17.262 59.644,17.256 L33.595,0.766 L33.595,0.766 C32.843,0.289 31.954,0.012 31.001,0.012 C28.297,0.012 26.105,2.232 26.105,4.971 L26.105,4.971 L26.105,12.554 L7.484,0.766 L7.484,0.766 C6.732,0.289 5.843,0.012 4.890,0.012 C2.186,0.012 -0.006,2.232 -0.006,4.971 L-0.006,4.971 Z" class="cls-1"/>
</svg>
